<svg width="456" height="198" viewBox="0 0 456 198" fill="none" xmlns="http://www.w3.org/2000/svg">
<g clip-path="url(#clip0_350_126)">
<path d="M404.34 91.13L403.38 87.52L400.08 90.47L404.34 91.13Z" fill="#00622B"/>
<path d="M361.72 48.94L371.69 68.94L382.19 77.8L402.77 85.28L394.15 53.12L427.96 52.08L429 88.92L455.14 79.9L454.45 45.48L414.46 46.16L394.06 52.75L393.74 51.59L387.06 39.85L378.9 39.97L379.66 36.04L382.82 32.3L372.61 34.66L369.32 26.39L363.37 23.5L365.08 18.85L369.13 23.18L371.75 13.81L383.71 10.8L386.65 16.64L397.89 4.79L398 0L389.04 0.06L381.27 6.61L375.93 0.57L363.31 2.72L357.73 19.04L364.11 32.35L352.27 47.35L361.72 48.94Z" fill="#00622B"/>
<path d="M411.13 92.18L404.34 91.13L405.57 95.72L411.13 92.18Z" fill="#00622B"/>
<path d="M404.99 86.08L402.77 85.28L403.38 87.52L404.99 86.08Z" fill="#00622B"/>
<path d="M373.25 94.64L388.06 119.04L394.56 98L384.45 95.57L367.06 84.54L352.09 60.92L361.95 85.71L373.25 94.64Z" fill="#00622B"/>
<path d="M416.18 172.07L403.34 171.56L393.68 176.75L393.66 182.33L411.34 177.46L422.01 176.29L433.18 166.37L427.46 161.36L416.18 172.07Z" fill="#00622B"/>
<path d="M405.21 127.09L417 106.67H393.42L405.21 127.09Z" fill="#00622B"/>
<path d="M378.9 152.31L391.38 176.6L409.31 167.39L392.98 135.61L392.83 135.68L377 106.28L353.95 106.45L368.21 135.02L338.67 159.05L340.99 161.89L346.68 172.48L346.42 179.64L368.21 179.72L370.99 171.86L359.28 174.58L359.52 168.07L378.9 152.31Z" fill="#00622B"/>
<path d="M55.5998 149.74C54.7451 151.452 53.6766 153.048 52.4198 154.49C51.089 156.103 49.4044 157.388 47.4967 158.245C45.5891 159.101 43.5096 159.507 41.4198 159.43C34.7198 159.43 31.1298 155.72 29.8198 152.78C28.8873 150.691 28.4427 148.417 28.5198 146.13C28.5198 138.82 31.9398 132.26 32.8398 130.46C38.3098 120.46 45.3398 118.97 49.5798 118.97C49.9898 118.97 57.0098 118.97 59.7098 123.62C60.4238 125.065 60.787 126.658 60.7698 128.27C60.7809 129.28 60.6701 130.287 60.4398 131.27H82.1398C82.3823 130.017 82.5195 128.746 82.5498 127.47C82.521 125.54 82.218 123.624 81.6498 121.78C80.4655 118.144 78.3197 114.896 75.4398 112.38C66.2198 104.21 52.4998 104.49 49.8898 104.49C44.8448 104.404 39.8183 105.123 34.9998 106.62C26.3184 109.524 18.9987 115.503 14.4198 123.43C10.1849 130.386 7.9272 138.366 7.8898 146.51C7.76531 150.726 8.48262 154.925 9.9998 158.86C11.0254 161.349 12.4923 163.632 14.3298 165.6C21.2298 173 32.0898 175 40.9998 175C55.7798 175 64.1898 169.78 69.1698 164.84C73.9827 159.988 77.2979 153.854 78.7198 147.17H56.5798C56.3203 148.051 55.9926 148.91 55.5998 149.74Z" fill="#00622B"/>
<path d="M141.89 108.62C134.62 104.53 125.64 104.53 123.52 104.53C116.894 104.433 110.349 105.988 104.475 109.056C98.6018 112.123 93.5855 116.607 89.88 122.1C85.06 128.94 81.55 138.1 81.55 146.98C81.4417 152.31 82.7975 157.567 85.47 162.18C93.22 175.18 108.33 175 111.47 175C130.91 175 141.2 164.65 146.26 157.34C148.38 154.34 154.42 144.61 154.42 132.17C154.54 121.53 150.05 113.18 141.89 108.62ZM129 148.31C123.93 158.19 117.4 159.52 113.24 159.52C111.537 159.609 109.838 159.284 108.289 158.574C106.739 157.863 105.384 156.788 104.34 155.44C102.957 153.374 102.257 150.925 102.34 148.44C102.34 142.74 105.11 135.14 107.73 130.44C111.16 124.44 116.22 119.71 122.73 119.71C125.34 119.62 133.73 120.71 133.73 131.49C133.72 138.72 129.56 147.17 129 148.31Z" fill="#00622B"/>
<path d="M273.33 106.24L246.96 151.07L246.38 106.24H226.32H226.14H207.46L196.44 147.08L189.25 106.24H168.35L148.18 173.29H167.2L177.57 133.69L185.17 173.29H206.15L226.16 106.77L229.4 173.29H254.14L297.74 106.24H273.33Z" fill="#00622B"/>
<path d="M337.4 146.36L341.4 132.21H316.91L320.01 121.58H347.61L352.26 106H303.84L284 173.05H333.65L338.14 157.76H309.4L312.74 146.36H337.4Z" fill="#00622B"/>
</g>
<defs>
<clipPath id="clip0_350_126">
<rect width="455.14" height="197.03" fill="white"/>
</clipPath>
</defs>
</svg>
