<?xml version="1.0" standalone="no"?>
<!DOCTYPE svg PUBLIC "-//W3C//DTD SVG 20010904//EN"
 "http://www.w3.org/TR/2001/REC-SVG-20010904/DTD/svg10.dtd">
<svg version="1.0" xmlns="http://www.w3.org/2000/svg"
 width="700.000000pt" height="700.000000pt" viewBox="0 0 700.000000 700.000000"
 preserveAspectRatio="xMidYMid meet">
<metadata>
Created by potrace 1.14, written by Peter Selinger 2001-2017
</metadata>
<g transform="translate(0.000000,700.000000) scale(0.100000,-0.100000)"
fill="#000000" stroke="none">
<path d="M3188 6991 c-2 -3 -59 -53 -128 -110 -69 -57 -133 -111 -142 -119
-16 -14 -20 -13 -35 5 -176 202 -190 215 -212 208 -23 -7 -6 -4 -258 -45
l-201 -33 -46 -131 c-124 -360 -166 -484 -166 -495 0 -10 19 -51 174 -375 l67
-138 -25 -32 c-13 -17 -80 -101 -147 -186 -218 -275 -279 -354 -275 -358 2 -2
30 -7 62 -12 102 -15 248 -40 272 -45 18 -4 58 -78 214 -389 l192 -384 203
-171 c111 -95 208 -173 215 -176 42 -13 572 -205 688 -249 81 -31 85 -34 94
-69 11 -43 14 -44 51 -15 l27 21 -40 16 c-22 9 -43 19 -46 22 -5 4 -44 148
-91 329 -2 8 -20 76 -40 150 -20 74 -47 176 -60 225 -91 347 -126 473 -134
498 -9 25 -7 27 17 27 15 1 72 3 127 5 91 3 214 7 660 20 83 3 225 7 318 10
154 5 167 4 168 -12 1 -10 2 -61 4 -113 5 -158 19 -647 30 -1035 4 -132 8
-241 10 -243 3 -3 112 34 530 178 94 32 238 82 321 110 l151 52 -3 91 c-1 51
-5 227 -8 392 -12 598 -17 830 -22 834 -4 4 -195 3 -539 -4 -82 -2 -334 -6
-560 -9 -394 -6 -446 -9 -495 -29 -8 -3 -130 -42 -270 -87 -140 -45 -299 -97
-352 -115 -60 -20 -98 -28 -98 -21 0 6 -6 22 -14 36 -7 14 -23 43 -35 65 -11
22 -65 117 -119 210 l-98 170 -152 1 c-83 0 -154 3 -157 6 -5 5 1 39 20 125 3
12 32 53 65 91 l60 69 -63 -13 c-34 -7 -120 -26 -192 -43 -71 -17 -133 -27
-137 -23 -3 4 -32 72 -64 152 -31 80 -65 151 -75 159 -10 7 -63 34 -117 60
l-99 47 30 85 c16 46 32 86 34 88 2 3 39 -33 83 -80 44 -46 80 -77 80 -69 0
11 89 340 94 347 3 3 439 113 450 113 7 0 35 -47 64 -105 29 -58 56 -105 60
-105 5 0 33 26 63 59 43 47 306 324 357 377 8 8 12 44 12 103 l0 91 -175 -1
c-96 -1 -175 -4 -177 -8z"/>
<path d="M1792 4624 c3 -5 40 -97 83 -204 42 -107 85 -215 95 -240 11 -25 58
-141 104 -259 47 -118 89 -217 94 -220 5 -3 101 -79 214 -169 212 -167 225
-181 307 -325 10 -17 87 -144 171 -282 84 -137 158 -259 164 -270 62 -111 131
-214 138 -207 4 4 17 37 27 73 24 80 211 688 218 705 3 8 -5 15 -19 18 -12 3
-100 24 -195 46 l-171 41 -219 139 c-120 76 -270 171 -334 211 l-116 72 -72
116 c-71 113 -234 371 -330 521 -26 41 -70 110 -97 153 -27 43 -53 81 -58 84
-5 4 -7 2 -4 -3z"/>
<path d="M3688 3586 c-53 -47 -70 -69 -50 -64 13 3 129 -14 140 -21 6 -3 19
-41 30 -84 11 -43 23 -81 25 -84 3 -2 50 24 105 59 55 35 98 65 96 67 -5 5
-17 8 -69 15 -98 15 -170 28 -175 32 -3 3 -14 34 -25 69 l-20 63 -57 -52z"/>
<path d="M1874 2912 c-20 -3 3 -54 250 -548 150 -299 270 -548 267 -552 -3 -5
-42 -37 -86 -72 -44 -34 -82 -66 -85 -69 -3 -4 -25 -22 -50 -41 -25 -19 -47
-37 -50 -40 -3 -3 -39 -32 -80 -65 -41 -33 -86 -70 -100 -82 -14 -11 -115 -94
-225 -183 -110 -89 -209 -169 -220 -178 -11 -10 -66 -55 -122 -101 -57 -46
-103 -86 -103 -89 0 -3 17 -26 38 -51 35 -42 73 -107 216 -374 l48 -89 -4
-136 -3 -137 416 -3 416 -3 23 63 c78 218 84 238 76 238 -2 0 -53 -12 -112
-26 -59 -14 -114 -27 -123 -29 -9 -2 -56 -13 -104 -24 -48 -12 -91 -21 -95
-21 -5 0 -7 15 -6 33 2 17 4 71 5 120 2 48 6 91 9 95 3 5 52 46 110 93 58 46
107 86 110 89 3 3 52 43 110 90 58 47 114 92 125 102 134 112 281 225 287 220
4 -4 43 -79 88 -167 45 -88 126 -245 180 -350 54 -104 119 -233 145 -285 26
-52 52 -100 57 -107 7 -9 57 12 186 79 97 50 247 126 332 170 85 44 159 84
165 89 6 6 -6 38 -32 87 -22 42 -93 181 -158 307 -323 632 -401 781 -442 850
-17 28 -83 149 -148 270 -65 121 -136 254 -158 295 -94 174 -126 234 -206 383
l-84 156 -421 -2 c-232 -1 -431 -3 -442 -5z"/>
<path d="M3375 2900 c-1 -3 53 -102 121 -220 69 -118 168 -290 220 -382 53
-93 99 -168 103 -168 3 0 49 76 102 168 54 92 153 263 220 381 68 118 124 217
124 220 0 7 -886 8 -890 1z"/>
<path d="M4565 704 c-55 -53 -131 -126 -170 -163 -147 -143 -158 -150 -217
-146 -76 5 -303 15 -374 16 -58 1 -69 -2 -180 -63 -66 -36 -147 -80 -181 -98
-35 -17 -63 -37 -64 -44 -4 -48 -4 -198 0 -200 4 -2 69 14 146 35 77 22 183
51 235 65 52 14 109 29 125 34 142 39 188 49 240 55 33 3 74 7 90 9 17 3 62 8
100 11 39 4 77 9 85 10 8 2 26 4 40 4 14 1 41 16 60 34 19 18 109 98 200 178
91 80 171 153 178 161 11 14 8 19 -15 38 -15 12 -44 36 -63 53 -93 84 -121
107 -128 107 -4 -1 -52 -44 -107 -96z"/>
</g>
</svg>
